<svg viewBox="0 0 520 520" xmlns="http://www.w3.org/2000/svg" xmlns:xlink="http://www.w3.org/1999/xlink"><radialGradient id="a" cx="50%" cy="100%" r="50%"><stop offset="0" stop-color="#666" stop-opacity=".2"/><stop offset="1" stop-color="#666" stop-opacity="0"/></radialGradient><radialGradient id="b" cx="50%" cy="0%" r="50%"><stop offset="0" stop-color="#666" stop-opacity=".9"/><stop offset="1" stop-color="#666" stop-opacity="0"/></radialGradient><g transform="matrix(0 1 -1 0 520 0)"><path d="m259 519c-143 0-259-116-259-260 0-143 116-259 259-259 144 0 260 116 260 259 0 144-116 260-260 260zm0-67c107 0 193-86 193-193 0-106-86-193-193-193-106 0-193 87-193 193 0 107 87 193 193 193z" fill="url(#a)"/><path d="m247 386-25-5-18 28-11-5 7-33-21-14-28 19-8-8 18-28-14-21-32 7-5-11 28-18-5-25-33-6v-12l33-7 5-24-28-19 5-11 32 7 14-21-18-27 8-9 28 19 21-14-7-33 11-4 18 28 25-5 6-33h12l6 33 25 5 18-28 11 4-7 33 21 14 28-19 8 9-18 27 14 21 32-7 5 11-28 19 5 24 33 7v12l-33 6-5 25 28 18-5 11-32-7-14 21 18 28-8 8-28-19-21 14 7 33-11 5-18-28-25 5-6 32h-12z" fill="url(#b)"/></g></svg>